<mxfile host="Electron" agent="Mozilla/5.0 (Windows NT 10.0; Win64; x64) AppleWebKit/537.36 (KHTML, like Gecko) draw.io/27.0.9 Chrome/134.0.6998.205 Electron/35.4.0 Safari/537.36" version="27.0.9">
  <diagram name="Level 1 DFD" id="StockMarketDFD_Level1">
    <mxGraphModel dx="1646" dy="1604" grid="1" gridSize="10" guides="1" tooltips="1" connect="1" arrows="1" fold="1" page="0" pageScale="1" pageWidth="1400" pageHeight="1100" math="0" shadow="0">
      <root>
        <mxCell id="0" />
        <mxCell id="1" parent="0" />
        <mxCell id="bA9sPEqVbf5yBGdgR7op-23" style="edgeStyle=orthogonalEdgeStyle;rounded=0;orthogonalLoop=1;jettySize=auto;html=1;entryX=0;entryY=0.5;entryDx=0;entryDy=0;exitX=0;exitY=0.25;exitDx=0;exitDy=0;" edge="1" parent="1" source="user" target="p3_share_trans">
          <mxGeometry relative="1" as="geometry">
            <mxPoint x="-10" y="70" as="sourcePoint" />
            <Array as="points">
              <mxPoint x="-10" y="70" />
              <mxPoint x="-10" y="-350" />
            </Array>
          </mxGeometry>
        </mxCell>
        <mxCell id="bA9sPEqVbf5yBGdgR7op-25" value="&lt;b&gt;&lt;font style=&quot;font-size: 16px;&quot;&gt;Buy / Sell Shares&lt;/font&gt;&lt;/b&gt;" style="edgeLabel;html=1;align=center;verticalAlign=middle;resizable=0;points=[];" vertex="1" connectable="0" parent="bA9sPEqVbf5yBGdgR7op-23">
          <mxGeometry x="0.115" y="3" relative="1" as="geometry">
            <mxPoint x="3" y="22" as="offset" />
          </mxGeometry>
        </mxCell>
        <mxCell id="user" value="&lt;font style=&quot;font-size: 20px;&quot;&gt;User&lt;/font&gt;" style="rounded=0;whiteSpace=wrap;html=1;" parent="1" vertex="1">
          <mxGeometry x="50" y="50" width="160" height="80" as="geometry" />
        </mxCell>
        <mxCell id="bA9sPEqVbf5yBGdgR7op-37" style="edgeStyle=orthogonalEdgeStyle;rounded=0;orthogonalLoop=1;jettySize=auto;html=1;exitX=1;exitY=0.5;exitDx=0;exitDy=0;entryX=0;entryY=0.5;entryDx=0;entryDy=0;" edge="1" parent="1" source="admin" target="p8_faq_mgmt">
          <mxGeometry relative="1" as="geometry" />
        </mxCell>
        <mxCell id="bA9sPEqVbf5yBGdgR7op-38" value="&lt;b&gt;&lt;font style=&quot;font-size: 16px;&quot;&gt;Manage FAQs&lt;/font&gt;&lt;/b&gt;" style="edgeLabel;html=1;align=center;verticalAlign=middle;resizable=0;points=[];" vertex="1" connectable="0" parent="bA9sPEqVbf5yBGdgR7op-37">
          <mxGeometry x="-0.0788" y="-1" relative="1" as="geometry">
            <mxPoint as="offset" />
          </mxGeometry>
        </mxCell>
        <mxCell id="admin" value="&lt;font style=&quot;font-size: 20px;&quot;&gt;Admin&lt;/font&gt;" style="rounded=0;whiteSpace=wrap;html=1;" parent="1" vertex="1">
          <mxGeometry x="-130" y="920" width="160" height="80" as="geometry" />
        </mxCell>
        <mxCell id="p1_user_mgmt" value="&lt;font style=&quot;font-size: 15px;&quot;&gt;1.1 User Management&lt;/font&gt;" style="ellipse;whiteSpace=wrap;html=1;" parent="1" vertex="1">
          <mxGeometry x="70" y="270" width="120" height="80" as="geometry" />
        </mxCell>
        <mxCell id="p2_company_mgmt" value="&lt;font style=&quot;font-size: 15px;&quot;&gt;1.2 Company Management&lt;/font&gt;" style="ellipse;whiteSpace=wrap;html=1;" parent="1" vertex="1">
          <mxGeometry x="-110" y="680" width="120" height="80" as="geometry" />
        </mxCell>
        <mxCell id="bA9sPEqVbf5yBGdgR7op-27" style="edgeStyle=orthogonalEdgeStyle;rounded=0;orthogonalLoop=1;jettySize=auto;html=1;exitX=0.5;exitY=1;exitDx=0;exitDy=0;" edge="1" parent="1" source="p3_share_trans">
          <mxGeometry relative="1" as="geometry">
            <mxPoint x="150" y="50" as="targetPoint" />
            <Array as="points">
              <mxPoint x="150" y="50" />
            </Array>
          </mxGeometry>
        </mxCell>
        <mxCell id="bA9sPEqVbf5yBGdgR7op-28" value="&lt;b&gt;&lt;font style=&quot;font-size: 16px;&quot;&gt;Share / Wishlist Data&lt;/font&gt;&lt;/b&gt;" style="edgeLabel;html=1;align=center;verticalAlign=middle;resizable=0;points=[];" vertex="1" connectable="0" parent="bA9sPEqVbf5yBGdgR7op-27">
          <mxGeometry x="0.0213" y="-1" relative="1" as="geometry">
            <mxPoint as="offset" />
          </mxGeometry>
        </mxCell>
        <mxCell id="p3_share_trans" value="&lt;font style=&quot;font-size: 15px;&quot;&gt;1.3 Share Transactions&lt;/font&gt;" style="ellipse;whiteSpace=wrap;html=1;" parent="1" vertex="1">
          <mxGeometry x="90" y="-390" width="120" height="80" as="geometry" />
        </mxCell>
        <mxCell id="p4_wishlist_mgmt" value="&lt;font style=&quot;font-size: 15px;&quot;&gt;1.4 Wishlist Management&lt;/font&gt;" style="ellipse;whiteSpace=wrap;html=1;" parent="1" vertex="1">
          <mxGeometry x="480" y="170" width="120" height="80" as="geometry" />
        </mxCell>
        <mxCell id="p5_price_tracking" value="&lt;font style=&quot;font-size: 15px;&quot;&gt;1.5 Price Tracking&lt;/font&gt;" style="ellipse;whiteSpace=wrap;html=1;" parent="1" vertex="1">
          <mxGeometry x="470" y="-390" width="120" height="80" as="geometry" />
        </mxCell>
        <mxCell id="p6_testimonials" value="&lt;font style=&quot;font-size: 15px;&quot;&gt;1.6 Testimonials&lt;/font&gt;" style="ellipse;whiteSpace=wrap;html=1;" parent="1" vertex="1">
          <mxGeometry x="-270" y="50" width="120" height="80" as="geometry" />
        </mxCell>
        <mxCell id="p7_activities" value="&lt;font style=&quot;font-size: 15px;&quot;&gt;1.7 Recent Activities&lt;/font&gt;" style="ellipse;whiteSpace=wrap;html=1;" parent="1" vertex="1">
          <mxGeometry x="480" y="-50" width="120" height="80" as="geometry" />
        </mxCell>
        <mxCell id="p8_faq_mgmt" value="&lt;font style=&quot;font-size: 15px;&quot;&gt;1.8 FAQ Management&lt;/font&gt;" style="ellipse;whiteSpace=wrap;html=1;" parent="1" vertex="1">
          <mxGeometry x="250" y="920" width="120" height="80" as="geometry" />
        </mxCell>
        <mxCell id="users_store" value="&lt;font style=&quot;font-size: 15px;&quot;&gt;D1: Users&lt;/font&gt;" style="shape=datastore;whiteSpace=wrap;html=1;" parent="1" vertex="1">
          <mxGeometry x="-260" y="280" width="120" height="60" as="geometry" />
        </mxCell>
        <mxCell id="companies_store" value="&lt;font style=&quot;font-size: 15px;&quot;&gt;D2: Listed Companies&lt;/font&gt;" style="shape=datastore;whiteSpace=wrap;html=1;" parent="1" vertex="1">
          <mxGeometry x="-110" y="490" width="120" height="60" as="geometry" />
        </mxCell>
        <mxCell id="shareholdings_store" value="&lt;font style=&quot;font-size: 15px;&quot;&gt;D3: Share Holdings&lt;/font&gt;" style="shape=datastore;whiteSpace=wrap;html=1;" parent="1" vertex="1">
          <mxGeometry x="90" y="-600" width="120" height="60" as="geometry" />
        </mxCell>
        <mxCell id="wishlists_store" value="&lt;font style=&quot;font-size: 15px;&quot;&gt;D4: Wish Lists&lt;/font&gt;" style="shape=datastore;whiteSpace=wrap;html=1;" parent="1" vertex="1">
          <mxGeometry x="480" y="410" width="120" height="60" as="geometry" />
        </mxCell>
        <mxCell id="historical_prices_store" value="&lt;font style=&quot;font-size: 15px;&quot;&gt;D5: Historical Prices&lt;/font&gt;" style="shape=datastore;whiteSpace=wrap;html=1;" parent="1" vertex="1">
          <mxGeometry x="470" y="-600" width="120" height="60" as="geometry" />
        </mxCell>
        <mxCell id="testimonials_store" value="&lt;font style=&quot;font-size: 15px;&quot;&gt;D6: User Testimonials&lt;/font&gt;" style="shape=datastore;whiteSpace=wrap;html=1;" parent="1" vertex="1">
          <mxGeometry x="-270" y="-150" width="120" height="60" as="geometry" />
        </mxCell>
        <mxCell id="activities_store" value="&lt;font style=&quot;font-size: 15px;&quot;&gt;D7: Recent Activities&lt;/font&gt;" style="shape=datastore;whiteSpace=wrap;html=1;" parent="1" vertex="1">
          <mxGeometry x="480" y="-260" width="120" height="60" as="geometry" />
        </mxCell>
        <mxCell id="faq_store" value="&lt;font style=&quot;font-size: 15px;&quot;&gt;D8: FAQ&lt;/font&gt;" style="shape=datastore;whiteSpace=wrap;html=1;" parent="1" vertex="1">
          <mxGeometry x="250" y="670" width="120" height="60" as="geometry" />
        </mxCell>
        <mxCell id="user_to_wishlist" value="&lt;font style=&quot;font-size: 16px;&quot;&gt;&lt;b style=&quot;&quot;&gt;Manage Wishlist&lt;/b&gt;&lt;/font&gt;" style="endArrow=classic;html=1;rounded=1;exitX=1;exitY=0.25;entryX=0;entryY=0;entryDx=0;entryDy=0;" parent="1" source="user" target="p4_wishlist_mgmt" edge="1">
          <mxGeometry width="50" height="50" relative="1" as="geometry">
            <Array as="points" />
          </mxGeometry>
        </mxCell>
        <mxCell id="wishlist_data_to_user" value="&lt;font style=&quot;font-size: 16px;&quot;&gt;&lt;b style=&quot;&quot;&gt;Wishlist Data&lt;/b&gt;&lt;/font&gt;" style="endArrow=classic;html=1;rounded=1;exitX=0;exitY=1;entryX=1;entryY=1;entryDx=0;entryDy=0;exitDx=0;exitDy=0;" parent="1" source="p4_wishlist_mgmt" target="user" edge="1">
          <mxGeometry width="50" height="50" relative="1" as="geometry">
            <Array as="points" />
          </mxGeometry>
        </mxCell>
        <mxCell id="p1_to_users" value="&lt;font style=&quot;font-size: 16px;&quot;&gt;&lt;b style=&quot;&quot;&gt;User Data&lt;/b&gt;&lt;/font&gt;" style="endArrow=classic;html=1;rounded=1;exitX=0;exitY=0.5;entryX=1;entryY=0.5;exitDx=0;exitDy=0;entryDx=0;entryDy=0;" parent="1" source="p1_user_mgmt" target="users_store" edge="1">
          <mxGeometry width="50" height="50" relative="1" as="geometry">
            <mxPoint as="offset" />
          </mxGeometry>
        </mxCell>
        <mxCell id="p2_to_companies" value="&lt;font style=&quot;font-size: 16px;&quot;&gt;&lt;b style=&quot;&quot;&gt;Company Data&lt;/b&gt;&lt;/font&gt;" style="endArrow=classic;html=1;rounded=1;exitX=0.5;exitY=0;entryX=0.5;entryY=1;exitDx=0;exitDy=0;entryDx=0;entryDy=0;" parent="1" source="p2_company_mgmt" target="companies_store" edge="1">
          <mxGeometry width="50" height="50" relative="1" as="geometry" />
        </mxCell>
        <mxCell id="p3_to_shareholdings" value="&lt;font style=&quot;font-size: 16px;&quot;&gt;&lt;b style=&quot;&quot;&gt;Share Data&lt;/b&gt;&lt;/font&gt;" style="endArrow=classic;html=1;rounded=1;entryX=0.5;entryY=1;entryDx=0;entryDy=0;exitX=0.5;exitY=0;exitDx=0;exitDy=0;" parent="1" source="p3_share_trans" target="shareholdings_store" edge="1">
          <mxGeometry width="50" height="50" relative="1" as="geometry">
            <mxPoint x="630" y="-80" as="sourcePoint" />
          </mxGeometry>
        </mxCell>
        <mxCell id="p4_to_wishlists" value="&lt;font style=&quot;font-size: 16px;&quot;&gt;&lt;b style=&quot;&quot;&gt;Wishlist Data&lt;/b&gt;&lt;/font&gt;" style="endArrow=classic;html=1;rounded=1;exitX=0.5;exitY=1;entryX=0.5;entryY=0;exitDx=0;exitDy=0;entryDx=0;entryDy=0;" parent="1" source="p4_wishlist_mgmt" target="wishlists_store" edge="1">
          <mxGeometry x="-0.1818" width="50" height="50" relative="1" as="geometry">
            <mxPoint as="offset" />
          </mxGeometry>
        </mxCell>
        <mxCell id="p5_to_historical_prices" value="&lt;font style=&quot;font-size: 16px;&quot;&gt;&lt;b style=&quot;&quot;&gt;Price Data&lt;/b&gt;&lt;/font&gt;" style="endArrow=classic;html=1;rounded=1;exitX=0.5;exitY=0;entryX=0.5;entryY=1;exitDx=0;exitDy=0;entryDx=0;entryDy=0;" parent="1" source="p5_price_tracking" target="historical_prices_store" edge="1">
          <mxGeometry width="50" height="50" relative="1" as="geometry" />
        </mxCell>
        <mxCell id="p7_to_activities" value="&lt;font style=&quot;font-size: 16px;&quot;&gt;&lt;b style=&quot;&quot;&gt;Activity Data&lt;/b&gt;&lt;/font&gt;" style="endArrow=classic;html=1;rounded=1;exitX=0.5;exitY=0;exitDx=0;exitDy=0;entryX=0.5;entryY=1;entryDx=0;entryDy=0;" parent="1" source="p7_activities" target="activities_store" edge="1">
          <mxGeometry x="-0.0667" width="50" height="50" relative="1" as="geometry">
            <mxPoint x="300" y="360" as="targetPoint" />
            <Array as="points" />
            <mxPoint y="-1" as="offset" />
          </mxGeometry>
        </mxCell>
        <mxCell id="p8_to_faq" value="&lt;font style=&quot;font-size: 16px;&quot;&gt;&lt;b style=&quot;&quot;&gt;FAQ Data&lt;/b&gt;&lt;/font&gt;" style="endArrow=classic;html=1;rounded=1;exitX=0.5;exitY=0;entryX=0.5;entryY=1;exitDx=0;exitDy=0;entryDx=0;entryDy=0;" parent="1" source="p8_faq_mgmt" target="faq_store" edge="1">
          <mxGeometry width="50" height="50" relative="1" as="geometry" />
        </mxCell>
        <mxCell id="p3_to_p5" value="&lt;font style=&quot;font-size: 16px;&quot;&gt;&lt;b style=&quot;&quot;&gt;Transaction Data&lt;/b&gt;&lt;/font&gt;" style="endArrow=classic;html=1;rounded=1;exitX=1;exitY=0.5;entryX=0;entryY=0.5;" parent="1" source="p3_share_trans" target="p5_price_tracking" edge="1">
          <mxGeometry width="50" height="50" relative="1" as="geometry" />
        </mxCell>
        <mxCell id="p4_to_p7" value="&lt;font style=&quot;font-size: 16px;&quot;&gt;&lt;b style=&quot;&quot;&gt;Wishlist Activity&lt;/b&gt;&lt;/font&gt;" style="endArrow=classic;html=1;rounded=1;exitX=0.5;exitY=0;entryX=0.5;entryY=1;entryDx=0;entryDy=0;exitDx=0;exitDy=0;" parent="1" source="p4_wishlist_mgmt" target="p7_activities" edge="1">
          <mxGeometry width="50" height="50" relative="1" as="geometry">
            <Array as="points" />
          </mxGeometry>
        </mxCell>
        <mxCell id="bA9sPEqVbf5yBGdgR7op-3" value="" style="endArrow=classic;html=1;rounded=0;entryX=0.5;entryY=1;entryDx=0;entryDy=0;exitX=0.5;exitY=0;exitDx=0;exitDy=0;" edge="1" parent="1" source="p6_testimonials" target="testimonials_store">
          <mxGeometry width="50" height="50" relative="1" as="geometry">
            <mxPoint x="40" y="150" as="sourcePoint" />
            <mxPoint x="90" y="100" as="targetPoint" />
          </mxGeometry>
        </mxCell>
        <mxCell id="bA9sPEqVbf5yBGdgR7op-4" value="&lt;b&gt;&lt;font style=&quot;font-size: 15px;&quot;&gt;Testimonial Data&lt;/font&gt;&lt;/b&gt;" style="edgeLabel;html=1;align=center;verticalAlign=middle;resizable=0;points=[];" vertex="1" connectable="0" parent="bA9sPEqVbf5yBGdgR7op-3">
          <mxGeometry x="0.2427" y="-1" relative="1" as="geometry">
            <mxPoint y="1" as="offset" />
          </mxGeometry>
        </mxCell>
        <mxCell id="bA9sPEqVbf5yBGdgR7op-7" value="" style="endArrow=classic;html=1;rounded=0;entryX=1;entryY=0.5;entryDx=0;entryDy=0;exitX=0;exitY=0.5;exitDx=0;exitDy=0;" edge="1" parent="1" source="user" target="p6_testimonials">
          <mxGeometry width="50" height="50" relative="1" as="geometry">
            <mxPoint x="-20" y="50" as="sourcePoint" />
            <mxPoint x="30" as="targetPoint" />
          </mxGeometry>
        </mxCell>
        <mxCell id="bA9sPEqVbf5yBGdgR7op-8" value="&lt;b&gt;&lt;font style=&quot;font-size: 16px;&quot;&gt;Submit&lt;/font&gt;&lt;/b&gt;&lt;div&gt;&lt;b&gt;&lt;font style=&quot;font-size: 16px;&quot;&gt;Testimonial&lt;/font&gt;&lt;/b&gt;&lt;/div&gt;" style="edgeLabel;html=1;align=center;verticalAlign=middle;resizable=0;points=[];" vertex="1" connectable="0" parent="bA9sPEqVbf5yBGdgR7op-7">
          <mxGeometry x="0.1819" y="-1" relative="1" as="geometry">
            <mxPoint x="1" as="offset" />
          </mxGeometry>
        </mxCell>
        <mxCell id="bA9sPEqVbf5yBGdgR7op-10" value="" style="endArrow=classic;html=1;rounded=0;exitX=0.5;exitY=1;exitDx=0;exitDy=0;entryX=0.5;entryY=0;entryDx=0;entryDy=0;" edge="1" parent="1" source="user" target="p1_user_mgmt">
          <mxGeometry width="50" height="50" relative="1" as="geometry">
            <mxPoint x="60" y="160" as="sourcePoint" />
            <mxPoint x="110" y="110" as="targetPoint" />
          </mxGeometry>
        </mxCell>
        <mxCell id="bA9sPEqVbf5yBGdgR7op-11" value="&lt;b&gt;&lt;font style=&quot;font-size: 16px;&quot;&gt;Register / Login&lt;/font&gt;&lt;/b&gt;" style="edgeLabel;html=1;align=center;verticalAlign=middle;resizable=0;points=[];" vertex="1" connectable="0" parent="bA9sPEqVbf5yBGdgR7op-10">
          <mxGeometry x="-0.0111" y="1" relative="1" as="geometry">
            <mxPoint as="offset" />
          </mxGeometry>
        </mxCell>
        <mxCell id="bA9sPEqVbf5yBGdgR7op-13" value="" style="endArrow=classic;html=1;rounded=0;exitX=0.5;exitY=0;exitDx=0;exitDy=0;entryX=0.5;entryY=1;entryDx=0;entryDy=0;" edge="1" parent="1" source="admin" target="p2_company_mgmt">
          <mxGeometry width="50" height="50" relative="1" as="geometry">
            <mxPoint x="40" y="1030" as="sourcePoint" />
            <mxPoint x="90" y="980" as="targetPoint" />
          </mxGeometry>
        </mxCell>
        <mxCell id="bA9sPEqVbf5yBGdgR7op-14" value="&lt;b&gt;&lt;font style=&quot;font-size: 16px;&quot;&gt;Manage&lt;/font&gt;&lt;/b&gt;&lt;div&gt;&lt;b&gt;&lt;font style=&quot;font-size: 16px;&quot;&gt;Companies&lt;/font&gt;&lt;/b&gt;&lt;/div&gt;" style="edgeLabel;html=1;align=center;verticalAlign=middle;resizable=0;points=[];" vertex="1" connectable="0" parent="bA9sPEqVbf5yBGdgR7op-13">
          <mxGeometry x="-0.105" relative="1" as="geometry">
            <mxPoint as="offset" />
          </mxGeometry>
        </mxCell>
        <mxCell id="bA9sPEqVbf5yBGdgR7op-39" value="" style="endArrow=classic;html=1;rounded=0;exitX=1;exitY=1;exitDx=0;exitDy=0;entryX=0;entryY=0;entryDx=0;entryDy=0;" edge="1" parent="1" source="p3_share_trans" target="p7_activities">
          <mxGeometry width="50" height="50" relative="1" as="geometry">
            <mxPoint x="430" y="-100" as="sourcePoint" />
            <mxPoint x="460" y="-150" as="targetPoint" />
          </mxGeometry>
        </mxCell>
        <mxCell id="bA9sPEqVbf5yBGdgR7op-40" value="&lt;b&gt;&lt;font style=&quot;font-size: 16px;&quot;&gt;Activity Log&lt;/font&gt;&lt;/b&gt;" style="edgeLabel;html=1;align=center;verticalAlign=middle;resizable=0;points=[];" vertex="1" connectable="0" parent="bA9sPEqVbf5yBGdgR7op-39">
          <mxGeometry x="-0.0934" relative="1" as="geometry">
            <mxPoint as="offset" />
          </mxGeometry>
        </mxCell>
      </root>
    </mxGraphModel>
  </diagram>
</mxfile>
